HIERARCHY
ROOT Hips
{
	OFFSET 7.7125 38.4228 -161.4020
	CHANNELS 6 Xposition Yposition Zposition Xrotation Yrotation Zrotation
	JOINT Spine
	{
		OFFSET 0.0000 7.4000 0.0000
		CHANNELS 3 Xrotation Yrotation Zrotation
		JOINT Head
		{
			OFFSET 0.0000 16.5127 0.0000
			CHANNELS 3 Xrotation Yrotation Zrotation
			End Site
			{
				OFFSET 0.0000 4.5275 0.0000
			}
		}
		JOINT LeftShoulder
		{
			OFFSET 0.0000 11.0747 0.0000
			CHANNELS 3 Xrotation Yrotation Zrotation
			JOINT LeftArm
			{
				OFFSET 8.2554 0.0000 0.0000
				CHANNELS 3 Xrotation Yrotation Zrotation
				JOINT LeftForeArm
				{
					OFFSET 11.1751 0.0000 0.0000
					CHANNELS 3 Xrotation Yrotation Zrotation
					JOINT LeftHand
					{
						OFFSET 9.4775 0.0000 0.0000
						CHANNELS 3 Xrotation Yrotation Zrotation
						JOINT LeftHandThumb1
						{
							OFFSET 0.0000 0.0000 0.0000
							CHANNELS 3 Xrotation Yrotation Zrotation
							End Site
							{
								OFFSET 0.0000 0.0000 3.9370
							}
						}
						JOINT LeftHand_End
						{
							OFFSET 3.9370 0.0000 0.0000
							CHANNELS 3 Xrotation Yrotation Zrotation
							End Site
							{
								OFFSET 0.0000 0.0000 0.0000
							}
						}
					}
				}
			}
		}
		JOINT RightShoulder
		{
			OFFSET 0.0000 11.0747 0.0000
			CHANNELS 3 Xrotation Yrotation Zrotation
			JOINT RightArm
			{
				OFFSET -8.2554 0.0000 0.0000
				CHANNELS 3 Xrotation Yrotation Zrotation
				JOINT RightForeArm
				{
					OFFSET -11.1751 0.0000 0.0000
					CHANNELS 3 Xrotation Yrotation Zrotation
					JOINT RightHand
					{
						OFFSET -9.4775 0.0000 0.0000
						CHANNELS 3 Xrotation Yrotation Zrotation
						JOINT RightHandThumb1
						{
							OFFSET 0.0000 0.0000 0.0000
							CHANNELS 3 Xrotation Yrotation Zrotation
							End Site
							{
								OFFSET 0.0000 0.0000 3.9370
							}
						}
						JOINT RightHand_End
						{
							OFFSET -3.9370 0.0000 0.0000
							CHANNELS 3 Xrotation Yrotation Zrotation
							End Site
							{
								OFFSET 0.0000 0.0000 0.0000
							}
						}
					}
				}
			}
		}
	}
	JOINT LeftUpLeg
	{
		OFFSET 3.6339 0.0000 0.0000
		CHANNELS 3 Xrotation Yrotation Zrotation
		JOINT LeftLeg
		{
			OFFSET 0.0000 -18.3740 0.0000
			CHANNELS 3 Xrotation Yrotation Zrotation
			JOINT LeftFoot
			{
				OFFSET 0.0000 -17.5024 0.0000
				CHANNELS 3 Xrotation Yrotation Zrotation
				JOINT LeftToeBase
				{
					OFFSET 0.0000 -1.4944 5.5772
					CHANNELS 3 Xrotation Yrotation Zrotation
					End Site
					{
						OFFSET 0.0000 0.0000 2.9527
					}
				}
			}
		}
	}
	JOINT RightUpLeg
	{
		OFFSET -3.6339 0.0000 0.0000
		CHANNELS 3 Xrotation Yrotation Zrotation
		JOINT RightLeg
		{
			OFFSET 0.0000 -18.3740 0.0000
			CHANNELS 3 Xrotation Yrotation Zrotation
			JOINT RightFoot
			{
				OFFSET 0.0000 -17.5024 0.0000
				CHANNELS 3 Xrotation Yrotation Zrotation
				JOINT RightToeBase
				{
					OFFSET 0.0000 -1.4944 5.5772
					CHANNELS 3 Xrotation Yrotation Zrotation
					End Site
					{
						OFFSET 0.0000 0.0000 2.9527
					}
				}
			}
		}
	}
}
MOTION
Frames: 6
Frame Time: 0.008333
24.5249 35.3270 82.6217 19.3170 -81.2925 25.5533 18.1243 -18.8414 -3.7321 -20.3691 -33.7695 4.2794 -4.5103 19.8269 11.3318 -3.3142 -15.4544 -78.8653 41.3450 -64.4546 38.4459 0.7439 4.7426 -8.9250 -0.0000 0.0000 -0.0000 -0.0000 0.0000 -0.0000 10.6300 -10.4774 -5.6776 -1.8543 31.6413 79.0774 -7.2353 8.7701 1.1089 0.8267 -10.9890 4.3291 -0.0000 0.0000 -0.0000 -0.0000 0.0000 -0.0000 16.2319 -4.2354 6.1876 5.3315 -0.0000 0.0000 -15.7002 2.7550 -29.8921 -5.5297 -0.0000 -0.0000 -37.7678 -15.7418 1.6796 38.3975 0.0000 0.0000 -13.5115 1.9124 22.9485 -7.6957 0.0000 0.0000 
23.8433 35.2209 82.7285 18.2520 -81.4529 24.4988 18.2561 -19.0561 -3.3311 -20.3181 -34.0095 4.1553 -4.7900 19.6527 11.8421 -3.5500 -15.5308 -79.0495 43.5887 -66.2239 41.0597 0.7694 4.8483 -9.0289 -0.0000 0.0000 -0.0000 -0.0000 0.0000 -0.0000 11.0334 -10.7280 -5.7526 -1.3686 31.4737 78.4510 -7.2438 8.1351 1.0304 0.8900 -11.0568 4.6312 -0.0000 0.0000 -0.0000 -0.0000 0.0000 -0.0000 17.5023 -4.0773 6.1892 5.3285 -0.0000 -0.0000 -15.2418 2.4087 -30.0381 -7.0462 -0.0000 -0.0000 -37.2511 -16.5689 1.8500 34.1872 0.0000 0.0000 -13.3469 2.0464 23.5629 -7.6484 -0.0000 -0.0000 
23.1480 35.1125 82.8362 17.0607 -81.6352 23.3625 18.3743 -19.2459 -2.9875 -20.3232 -34.0895 4.0100 -5.0277 19.5101 12.3237 -3.7321 -15.6447 -79.2054 45.4945 -68.2126 43.3723 0.8016 4.9560 -9.1993 -0.0000 0.0000 -0.0000 -0.0000 0.0000 -0.0000 11.3439 -10.9662 -5.8583 -0.8121 31.3629 77.8705 -7.2418 7.4996 0.9502 0.9337 -11.1163 4.8317 -0.0000 0.0000 -0.0000 -0.0000 0.0000 -0.0000 18.7008 -3.8886 6.1354 5.5523 0.0000 -0.0000 -14.8518 2.0414 -29.8512 -8.4458 -0.0000 -0.0000 -36.6414 -17.2620 2.0646 30.1415 -0.0000 -0.0000 -13.2709 1.9055 24.2284 -8.0807 -0.0000 -0.0000 
22.4396 34.9986 82.9433 15.7456 -81.8366 22.0697 18.5024 -19.3877 -2.5475 -20.4495 -34.3243 3.7041 -5.2766 19.4080 12.7693 -3.8610 -15.7617 -79.4152 48.2458 -69.8651 46.4456 0.8344 4.9961 -9.4941 -0.0000 0.0000 -0.0000 -0.0000 0.0000 -0.0000 11.6076 -11.2754 -6.0700 -0.2943 31.2237 77.3663 -7.1740 6.9828 0.8767 1.0052 -11.3856 5.0793 -0.0000 0.0000 -0.0000 -0.0000 0.0000 -0.0000 19.8300 -3.6706 6.1057 5.9701 -0.0000 0.0000 -14.3486 1.5711 -29.5815 -10.0886 -0.0000 -0.0000 -35.9749 -17.8883 2.3340 26.4036 -0.0000 -0.0000 -13.4354 1.6559 24.5704 -8.6587 0.0000 0.0000 
21.7155 34.8813 83.0370 14.0031 -82.0892 20.3378 18.6944 -19.4766 -2.1326 -20.5910 -34.4083 3.4310 -5.4424 19.3525 13.2391 -4.0444 -15.8709 -79.6722 52.0727 -71.0855 50.5210 0.8543 5.0042 -9.7007 -0.0000 0.0000 -0.0000 -0.0000 0.0000 -0.0000 11.8608 -11.5317 -6.2533 0.2104 31.0177 76.9307 -7.0409 6.4694 0.7973 1.0296 -11.5359 5.1355 -0.0000 0.0000 -0.0000 -0.0000 0.0000 -0.0000 20.8774 -3.4252 6.1054 6.6873 -0.0000 -0.0000 -13.7246 1.0043 -29.5153 -12.3115 -0.0000 0.0000 -35.2419 -18.2748 2.6653 23.1178 -0.0000 -0.0000 -13.6876 1.1486 25.0767 -9.2418 -0.0000 0.0000 
20.9854 34.7632 83.1317 12.5972 -82.3242 19.0240 18.7385 -19.5183 -1.8107 -20.6992 -34.5143 3.0771 -5.5016 19.2891 13.6216 -4.1865 -16.0635 -79.8790 55.8729 -72.3801 54.5833 0.8906 5.1370 -9.8496 -0.0000 0.0000 -0.0000 -0.0000 0.0000 -0.0000 12.2639 -11.8543 -6.4534 0.5104 30.8380 76.6260 -7.0689 5.9561 0.7372 1.0454 -11.7368 5.1259 -0.0000 0.0000 -0.0000 -0.0000 0.0000 -0.0000 21.6970 -3.3475 6.0106 7.7589 -0.0000 0.0000 -13.0308 0.4596 -29.1936 -14.4409 -0.0000 -0.0000 -34.6308 -18.3827 2.8764 20.2998 0.0000 0.0000 -14.0183 0.4080 25.9454 -9.5078 0.0000 -0.0000 
